M48
;Layer_Color=9474304
;FILE_FORMAT=4:4
METRIC,LZ
;TYPE=PLATED
T01F00S00C0.7112
T02F00S00C0.9000
T03F00S00C1.4000
T04F00S00C1.8000
T05F00S00C2.5000
%
T01
X0100076Y004572
X0109728Y0036068
X004699Y0037211
X004826Y0046736
X003429Y0027432
Y0054356
T02
X01143Y0033401
Y0035941
Y0038481
Y0041021
T03
X000635Y000512
Y001012
T04
X0095885Y002032
Y002286
Y00254
Y002794
Y003048
Y003302
Y003556
Y00381
Y004064
Y004318
Y004572
Y004826
Y00508
Y005334
X0073025
Y00508
Y004826
Y004572
Y004318
Y004064
Y00381
Y003556
Y003302
Y003048
Y002794
Y00254
Y002286
Y002032
X0060198Y0032621
Y0049421
X0041275Y0053721
Y003332
Y002032
Y0061341
X0073025Y005588
X0095885
T05
X0021717Y0020828
X000381Y0020955
Y0061976
X0021717
M30
