G04*
G04 #@! TF.GenerationSoftware,Altium Limited,Altium Designer,24.1.2 (44)*
G04*
G04 Layer_Color=65535*
%FSLAX44Y44*%
%MOMM*%
G71*
G04*
G04 #@! TF.SameCoordinates,79612F31-D5A8-4C31-8A46-0FB93C1D3082*
G04*
G04*
G04 #@! TF.FilePolarity,Positive*
G04*
G01*
G75*
%ADD10C,0.2000*%
%ADD11C,0.1270*%
%ADD12C,0.2540*%
D10*
X413750Y188200D02*
G03*
X413750Y188200I-1000J0D01*
G01*
X64500Y132200D02*
G03*
X64500Y132200I-1000J0D01*
G01*
X713050Y561000D02*
G03*
X713050Y561000I-1000J0D01*
G01*
X1130300Y422910D02*
X1155700D01*
Y321310D02*
Y422910D01*
X1130300Y321310D02*
Y422910D01*
Y321310D02*
X1155700D01*
X393700Y632460D02*
X431800D01*
Y518160D02*
Y632460D01*
X393700Y518160D02*
X431800D01*
X393700D02*
Y632460D01*
D11*
X569480Y350210D02*
Y470210D01*
X634480Y350210D02*
Y470210D01*
X569480D02*
X634480D01*
X569480Y350210D02*
X634480D01*
X601980Y336160D02*
Y350210D01*
Y470210D02*
Y484260D01*
X397250Y234700D02*
X412750D01*
X428250D01*
Y301700D01*
X412750D02*
X428250D01*
X397250D02*
X412750D01*
X397250Y234700D02*
Y301700D01*
X412750Y215000D02*
Y234700D01*
Y301700D02*
Y321400D01*
X103500Y26200D02*
Y126200D01*
X28500D02*
X103500D01*
X28500Y26200D02*
Y126200D01*
Y26200D02*
X103500D01*
X717550Y139700D02*
Y622300D01*
Y139700D02*
X971550D01*
X717550Y622300D02*
X971550D01*
Y139700D02*
Y622300D01*
D12*
X118110Y485902D02*
X163830Y440182D01*
X118110Y483362D02*
Y485902D01*
X71120Y438912D02*
X118110Y485902D01*
Y267462D02*
Y485902D01*
X25400Y631190D02*
X230400D01*
X25400Y196190D02*
Y631190D01*
Y196190D02*
X230400D01*
Y631190D01*
X33025Y545589D02*
Y540511D01*
X35564Y537972D01*
X45721D01*
X48260Y540511D01*
Y545589D01*
X45721Y548129D01*
X35564D01*
X33025Y545589D01*
X38103Y553207D02*
X45721D01*
X48260Y555746D01*
Y563364D01*
X38103D01*
X35564Y570981D02*
X38103D01*
Y568442D01*
Y573521D01*
Y570981D01*
X45721D01*
X48260Y573521D01*
X40642Y581138D02*
Y591295D01*
X35564Y586216D02*
X45721D01*
X201935Y549399D02*
Y544321D01*
X204474Y541782D01*
X214631D01*
X217170Y544321D01*
Y549399D01*
X214631Y551939D01*
X204474D01*
X201935Y549399D01*
X207013Y557017D02*
X214631D01*
X217170Y559556D01*
Y567174D01*
X207013D01*
X204474Y574791D02*
X207013D01*
Y572252D01*
Y577331D01*
Y574791D01*
X214631D01*
X217170Y577331D01*
X209552Y584948D02*
Y595105D01*
X201935Y234442D02*
Y239520D01*
Y236981D01*
X217170D01*
Y234442D01*
Y239520D01*
Y247138D02*
X207013D01*
Y254755D01*
X209552Y257295D01*
X217170D01*
X209552Y262373D02*
Y272530D01*
X38105Y238252D02*
Y243330D01*
Y240791D01*
X53340D01*
Y238252D01*
Y243330D01*
Y250948D02*
X43183D01*
Y258565D01*
X45722Y261105D01*
X53340D01*
X45722Y266183D02*
Y276340D01*
X40644Y271261D02*
X50801D01*
X614683Y521968D02*
Y506732D01*
X624840D01*
X629918D02*
X634997D01*
X632458D01*
Y521968D01*
X629918Y519428D01*
X397002Y367025D02*
Y351790D01*
X404619D01*
X407159Y354329D01*
Y364486D01*
X404619Y367025D01*
X397002D01*
X412237Y351790D02*
X417315D01*
X414776D01*
Y367025D01*
X412237Y364486D01*
X405381Y653792D02*
X402841Y656331D01*
X397763D01*
X395224Y653792D01*
Y643635D01*
X397763Y641096D01*
X402841D01*
X405381Y643635D01*
X410459Y641096D02*
X415537D01*
X412998D01*
Y656331D01*
X410459Y653792D01*
X38351Y156967D02*
X33272D01*
X35812D01*
Y144271D01*
X33272Y141732D01*
X30733D01*
X28194Y144271D01*
X53586Y141732D02*
X43429D01*
X53586Y151889D01*
Y154428D01*
X51047Y156967D01*
X45968D01*
X43429Y154428D01*
X1107447Y445768D02*
Y433072D01*
X1109986Y430532D01*
X1115064D01*
X1117603Y433072D01*
Y445768D01*
X1132838Y443228D02*
X1130299Y445768D01*
X1125221D01*
X1122682Y443228D01*
Y440689D01*
X1125221Y438150D01*
X1130299D01*
X1132838Y435611D01*
Y433072D01*
X1130299Y430532D01*
X1125221D01*
X1122682Y433072D01*
X1148073Y430532D02*
X1137917D01*
X1148073Y440689D01*
Y443228D01*
X1145534Y445768D01*
X1140456D01*
X1137917Y443228D01*
X712470Y647949D02*
Y635253D01*
X715009Y632714D01*
X720088D01*
X722627Y635253D01*
Y647949D01*
X737862Y632714D02*
X727705D01*
X737862Y642871D01*
Y645410D01*
X735323Y647949D01*
X730244D01*
X727705Y645410D01*
X22098Y661157D02*
Y645922D01*
X32255D01*
X37333D02*
Y661157D01*
X42411Y656079D01*
X47490Y661157D01*
Y645922D01*
X52568Y658618D02*
X55107Y661157D01*
X60186D01*
X62725Y658618D01*
Y656079D01*
X60186Y653540D01*
X57646D01*
X60186D01*
X62725Y651000D01*
Y648461D01*
X60186Y645922D01*
X55107D01*
X52568Y648461D01*
M02*
