G04*
G04 #@! TF.GenerationSoftware,Altium Limited,Altium Designer,24.1.2 (44)*
G04*
G04 Layer_Physical_Order=2*
G04 Layer_Color=16711680*
%FSLAX44Y44*%
%MOMM*%
G71*
G04*
G04 #@! TF.SameCoordinates,79612F31-D5A8-4C31-8A46-0FB93C1D3082*
G04*
G04*
G04 #@! TF.FilePolarity,Positive*
G04*
G01*
G75*
%ADD26C,0.4000*%
%ADD27C,1.3500*%
%ADD28R,1.5000X1.5000*%
%ADD29C,1.5000*%
%ADD30C,1.2000*%
%ADD31R,1.6500X1.6500*%
%ADD32C,1.6500*%
%ADD33R,2.1000X2.1000*%
%ADD34C,2.1000*%
%ADD35R,1.7526X1.7526*%
%ADD36C,1.7526*%
%ADD37C,3.2000*%
%ADD38R,3.5000X3.5000*%
%ADD39C,1.2700*%
G36*
X1259840Y688122D02*
Y0D01*
X0D01*
Y688122D01*
X1488Y689610D01*
X1258352D01*
X1259840Y688122D01*
D02*
G37*
%LPC*%
G36*
X237210Y639800D02*
X218440D01*
Y621030D01*
X237210D01*
Y639800D01*
D02*
G37*
G36*
X215900D02*
X197130D01*
Y621030D01*
X215900D01*
Y639800D01*
D02*
G37*
G36*
Y618490D02*
X197130D01*
Y599720D01*
X215900D01*
Y618490D01*
D02*
G37*
G36*
X946150Y616997D02*
X942229Y616611D01*
X938459Y615467D01*
X934985Y613610D01*
X931939Y611111D01*
X929440Y608065D01*
X927583Y604591D01*
X926439Y600821D01*
X926053Y596900D01*
X926439Y592979D01*
X927583Y589209D01*
X929440Y585735D01*
X931939Y582689D01*
X934985Y580190D01*
X938459Y578333D01*
X942229Y577189D01*
X946150Y576803D01*
X950071Y577189D01*
X953841Y578333D01*
X957315Y580190D01*
X960361Y582689D01*
X962860Y585735D01*
X964717Y589209D01*
X965861Y592979D01*
X966247Y596900D01*
X965861Y600821D01*
X964717Y604591D01*
X962860Y608065D01*
X960361Y611111D01*
X957315Y613610D01*
X953841Y615467D01*
X950071Y616611D01*
X946150Y616997D01*
D02*
G37*
G36*
X742950D02*
X739029Y616611D01*
X735259Y615467D01*
X731785Y613610D01*
X728739Y611111D01*
X726240Y608065D01*
X724383Y604591D01*
X723239Y600821D01*
X722853Y596900D01*
X723239Y592979D01*
X724383Y589209D01*
X726240Y585735D01*
X728739Y582689D01*
X731785Y580190D01*
X735259Y578333D01*
X739029Y577189D01*
X742950Y576803D01*
X746871Y577189D01*
X750641Y578333D01*
X754115Y580190D01*
X757161Y582689D01*
X759660Y585735D01*
X761517Y589209D01*
X762661Y592979D01*
X763047Y596900D01*
X762661Y600821D01*
X761517Y604591D01*
X759660Y608065D01*
X757161Y611111D01*
X754115Y613610D01*
X750641Y615467D01*
X746871Y616611D01*
X742950Y616997D01*
D02*
G37*
G36*
X412750Y626522D02*
X409356Y626075D01*
X406194Y624766D01*
X403478Y622682D01*
X401395Y619966D01*
X400085Y616804D01*
X399638Y613410D01*
X400085Y610016D01*
X400266Y609578D01*
X344480Y553791D01*
X342900Y553999D01*
X340198Y553644D01*
X337680Y552601D01*
X335518Y550942D01*
X333859Y548780D01*
X332816Y546262D01*
X332461Y543560D01*
X332816Y540858D01*
X333859Y538340D01*
X335518Y536178D01*
X337680Y534519D01*
X340198Y533476D01*
X342900Y533121D01*
X345602Y533476D01*
X348120Y534519D01*
X350282Y536178D01*
X351941Y538340D01*
X352984Y540858D01*
X353339Y543560D01*
X353131Y545140D01*
X408918Y600926D01*
X409356Y600745D01*
X412750Y600298D01*
X416144Y600745D01*
X419306Y602054D01*
X422022Y604138D01*
X424105Y606854D01*
X424287Y607293D01*
X480246D01*
X589496Y498042D01*
X589315Y497603D01*
X588868Y494210D01*
X589315Y490816D01*
X590625Y487654D01*
X592708Y484938D01*
X595424Y482854D01*
X598586Y481544D01*
X601980Y481098D01*
X605374Y481544D01*
X608536Y482854D01*
X611252Y484938D01*
X613335Y487654D01*
X614645Y490816D01*
X615092Y494210D01*
X614645Y497603D01*
X613335Y500766D01*
X611252Y503481D01*
X608536Y505565D01*
X605374Y506875D01*
X601980Y507322D01*
X598586Y506875D01*
X598148Y506693D01*
X487106Y617736D01*
X485121Y619062D01*
X482780Y619528D01*
X424287D01*
X424105Y619966D01*
X422022Y622682D01*
X419306Y624766D01*
X416144Y626075D01*
X412750Y626522D01*
D02*
G37*
G36*
X483870Y476160D02*
Y468630D01*
X491399D01*
X491261Y469681D01*
X490365Y471843D01*
X488940Y473700D01*
X487083Y475125D01*
X484921Y476021D01*
X483870Y476160D01*
D02*
G37*
G36*
X237210Y618490D02*
X218440D01*
Y599720D01*
X228559D01*
X309364Y518914D01*
X311349Y517588D01*
X313690Y517122D01*
X398780D01*
X401121Y517588D01*
X403106Y518914D01*
X412373Y528182D01*
X412750Y528132D01*
X413127Y528182D01*
X472678Y468630D01*
X481330D01*
Y477281D01*
X421778Y536833D01*
X421828Y537210D01*
X421518Y539560D01*
X420611Y541749D01*
X419169Y543629D01*
X417289Y545071D01*
X415099Y545978D01*
X412750Y546288D01*
X410401Y545978D01*
X408211Y545071D01*
X406331Y543629D01*
X404888Y541749D01*
X403982Y539560D01*
X403672Y537210D01*
X403722Y536833D01*
X396246Y529357D01*
X316224D01*
X237210Y608372D01*
Y618490D01*
D02*
G37*
G36*
X491399Y466090D02*
X483870D01*
Y458560D01*
X484921Y458699D01*
X487083Y459595D01*
X488940Y461020D01*
X490365Y462877D01*
X491261Y465039D01*
X491399Y466090D01*
D02*
G37*
G36*
X481330D02*
X473801D01*
X473939Y465039D01*
X474835Y462877D01*
X476260Y461020D01*
X478117Y459595D01*
X480279Y458699D01*
X481330Y458560D01*
Y466090D01*
D02*
G37*
G36*
X471170Y380910D02*
Y373380D01*
X478699D01*
X478561Y374431D01*
X477665Y376593D01*
X476240Y378450D01*
X474383Y379875D01*
X472221Y380771D01*
X471170Y380910D01*
D02*
G37*
G36*
X468630D02*
X467579Y380771D01*
X465417Y379875D01*
X463560Y378450D01*
X462135Y376593D01*
X461239Y374431D01*
X461101Y373380D01*
X468630D01*
Y380910D01*
D02*
G37*
G36*
X478699Y370840D02*
X471170D01*
Y363311D01*
X472221Y363449D01*
X474383Y364345D01*
X476240Y365770D01*
X477665Y367627D01*
X478561Y369789D01*
X478699Y370840D01*
D02*
G37*
G36*
X1097280Y371119D02*
X1094578Y370764D01*
X1092060Y369721D01*
X1089898Y368062D01*
X1088239Y365900D01*
X1087196Y363382D01*
X1086841Y360680D01*
X1087196Y357978D01*
X1088239Y355460D01*
X1089898Y353298D01*
X1092060Y351639D01*
X1094578Y350596D01*
X1097280Y350241D01*
X1099982Y350596D01*
X1102500Y351639D01*
X1104662Y353298D01*
X1105145Y353927D01*
X1132823D01*
X1132955Y353610D01*
X1134798Y351208D01*
X1137200Y349365D01*
X1139998Y348206D01*
X1143000Y347811D01*
X1146002Y348206D01*
X1148800Y349365D01*
X1151202Y351208D01*
X1153045Y353610D01*
X1154204Y356408D01*
X1154599Y359410D01*
X1154204Y362412D01*
X1153045Y365210D01*
X1151202Y367612D01*
X1148800Y369455D01*
X1146002Y370614D01*
X1143000Y371009D01*
X1139998Y370614D01*
X1137200Y369455D01*
X1134798Y367612D01*
X1133686Y366162D01*
X1106119D01*
X1104662Y368062D01*
X1102500Y369721D01*
X1099982Y370764D01*
X1097280Y371119D01*
D02*
G37*
G36*
X468630Y370840D02*
X459978D01*
X428456Y339318D01*
X419400D01*
X419169Y339619D01*
X417289Y341062D01*
X415099Y341969D01*
X412750Y342278D01*
X410401Y341969D01*
X408211Y341062D01*
X406331Y339619D01*
X406100Y339318D01*
X342090D01*
X339749Y338852D01*
X337765Y337526D01*
X228559Y228320D01*
X218440D01*
Y209550D01*
X237210D01*
Y219669D01*
X344624Y327083D01*
X406100D01*
X406331Y326781D01*
X408211Y325339D01*
X410401Y324432D01*
X412750Y324123D01*
X415099Y324432D01*
X417289Y325339D01*
X419169Y326781D01*
X419400Y327083D01*
X430990D01*
X433331Y327548D01*
X435316Y328875D01*
X468630Y362188D01*
Y370840D01*
D02*
G37*
G36*
X59600Y641260D02*
X16600D01*
Y598260D01*
X50949D01*
X262374Y386834D01*
X264359Y385508D01*
X266700Y385042D01*
X534496D01*
X589496Y330042D01*
X589315Y329604D01*
X588868Y326210D01*
X589315Y322817D01*
X590625Y319654D01*
X592708Y316938D01*
X595424Y314855D01*
X598586Y313545D01*
X601980Y313098D01*
X605374Y313545D01*
X608536Y314855D01*
X611252Y316938D01*
X613335Y319654D01*
X614645Y322817D01*
X615092Y326210D01*
X614645Y329604D01*
X613335Y332766D01*
X611252Y335482D01*
X608536Y337566D01*
X605374Y338876D01*
X601980Y339322D01*
X598586Y338876D01*
X598148Y338694D01*
X541356Y395486D01*
X539371Y396812D01*
X537030Y397277D01*
X269234D01*
X59600Y606912D01*
Y641260D01*
D02*
G37*
G36*
X958850Y571912D02*
X955456Y571465D01*
X952294Y570155D01*
X949578Y568072D01*
X947495Y565356D01*
X946185Y562194D01*
X945738Y558800D01*
X946185Y555406D01*
X947495Y552244D01*
X949578Y549528D01*
X952294Y547444D01*
X953881Y546787D01*
Y545413D01*
X952294Y544756D01*
X949578Y542672D01*
X947495Y539956D01*
X946185Y536794D01*
X945738Y533400D01*
X946185Y530006D01*
X947495Y526844D01*
X949578Y524128D01*
X952294Y522044D01*
X953881Y521387D01*
Y520013D01*
X952294Y519356D01*
X949578Y517272D01*
X947495Y514556D01*
X946185Y511394D01*
X945738Y508000D01*
X946185Y504606D01*
X947495Y501444D01*
X949578Y498728D01*
X952294Y496645D01*
X953881Y495987D01*
Y494613D01*
X952294Y493955D01*
X949578Y491872D01*
X947495Y489156D01*
X946185Y485994D01*
X945738Y482600D01*
X946185Y479206D01*
X947495Y476044D01*
X949578Y473328D01*
X952294Y471245D01*
X953881Y470587D01*
Y469213D01*
X952294Y468555D01*
X949578Y466472D01*
X947495Y463756D01*
X946185Y460594D01*
X945738Y457200D01*
X946185Y453806D01*
X947495Y450644D01*
X949578Y447928D01*
X952294Y445844D01*
X953881Y445187D01*
Y443813D01*
X952294Y443156D01*
X949578Y441072D01*
X947495Y438356D01*
X946185Y435194D01*
X945738Y431800D01*
X946185Y428406D01*
X947495Y425244D01*
X949578Y422528D01*
X952294Y420444D01*
X953881Y419787D01*
Y418413D01*
X952294Y417756D01*
X949578Y415672D01*
X947495Y412956D01*
X946185Y409794D01*
X945738Y406400D01*
X946185Y403006D01*
X947495Y399844D01*
X949578Y397128D01*
X952294Y395045D01*
X953881Y394387D01*
Y393013D01*
X952294Y392355D01*
X949578Y390272D01*
X947495Y387556D01*
X946185Y384394D01*
X945738Y381000D01*
X946185Y377606D01*
X947495Y374444D01*
X949578Y371728D01*
X952294Y369645D01*
X953881Y368987D01*
Y367613D01*
X952294Y366955D01*
X949578Y364872D01*
X947495Y362156D01*
X946185Y358994D01*
X945738Y355600D01*
X946185Y352206D01*
X947495Y349044D01*
X949578Y346328D01*
X952294Y344244D01*
X953881Y343587D01*
Y342213D01*
X952294Y341555D01*
X949578Y339472D01*
X947495Y336756D01*
X946185Y333594D01*
X945738Y330200D01*
X946185Y326806D01*
X947495Y323644D01*
X949578Y320928D01*
X952294Y318845D01*
X953881Y318187D01*
Y316813D01*
X952294Y316155D01*
X949578Y314072D01*
X947495Y311356D01*
X946185Y308194D01*
X945738Y304800D01*
X946185Y301406D01*
X947495Y298244D01*
X949578Y295528D01*
X952294Y293444D01*
X953881Y292787D01*
Y291413D01*
X952294Y290756D01*
X949578Y288672D01*
X947495Y285956D01*
X946185Y282794D01*
X945738Y279400D01*
X946185Y276006D01*
X947495Y272844D01*
X949578Y270128D01*
X952294Y268044D01*
X953881Y267387D01*
Y266013D01*
X952294Y265355D01*
X949578Y263272D01*
X947495Y260556D01*
X946185Y257394D01*
X945738Y254000D01*
X946185Y250606D01*
X947495Y247444D01*
X949578Y244728D01*
X952294Y242645D01*
X953881Y241987D01*
Y240613D01*
X952294Y239956D01*
X949578Y237872D01*
X947495Y235156D01*
X947313Y234718D01*
X746678D01*
X746192Y235891D01*
X758706Y248404D01*
X760032Y250389D01*
X760498Y252730D01*
Y306070D01*
X760032Y308411D01*
X758706Y310396D01*
X742734Y326368D01*
X742915Y326806D01*
X743362Y330200D01*
X742915Y333594D01*
X741606Y336756D01*
X739522Y339472D01*
X736806Y341555D01*
X735219Y342213D01*
Y343587D01*
X736806Y344244D01*
X739522Y346328D01*
X741606Y349044D01*
X742915Y352206D01*
X743362Y355600D01*
X742915Y358994D01*
X741606Y362156D01*
X739522Y364872D01*
X736806Y366955D01*
X735219Y367613D01*
Y368987D01*
X736806Y369645D01*
X739522Y371728D01*
X741606Y374444D01*
X742915Y377606D01*
X743362Y381000D01*
X742915Y384394D01*
X741606Y387556D01*
X739522Y390272D01*
X736806Y392355D01*
X735219Y393013D01*
Y394387D01*
X736806Y395045D01*
X739522Y397128D01*
X741606Y399844D01*
X742915Y403006D01*
X743362Y406400D01*
X742915Y409794D01*
X741606Y412956D01*
X739522Y415672D01*
X736806Y417756D01*
X735219Y418413D01*
Y419787D01*
X736806Y420444D01*
X739522Y422528D01*
X741606Y425244D01*
X742915Y428406D01*
X743362Y431800D01*
X742915Y435194D01*
X741606Y438356D01*
X739522Y441072D01*
X736806Y443156D01*
X735219Y443813D01*
Y445187D01*
X736806Y445844D01*
X739522Y447928D01*
X741606Y450644D01*
X742915Y453806D01*
X743362Y457200D01*
X742915Y460594D01*
X741606Y463756D01*
X739522Y466472D01*
X736806Y468555D01*
X735219Y469213D01*
Y470587D01*
X736806Y471245D01*
X739522Y473328D01*
X741606Y476044D01*
X742915Y479206D01*
X743362Y482600D01*
X742915Y485994D01*
X741606Y489156D01*
X739522Y491872D01*
X736806Y493955D01*
X735219Y494613D01*
Y495987D01*
X736806Y496645D01*
X739522Y498728D01*
X741606Y501444D01*
X742915Y504606D01*
X743362Y508000D01*
X742915Y511394D01*
X741606Y514556D01*
X739522Y517272D01*
X736806Y519356D01*
X735219Y520013D01*
Y521387D01*
X736806Y522044D01*
X739522Y524128D01*
X741606Y526844D01*
X742915Y530006D01*
X743362Y533400D01*
X742915Y536794D01*
X741606Y539956D01*
X739522Y542672D01*
X736806Y544756D01*
X736719Y544791D01*
X736967Y546037D01*
X743013D01*
Y556148D01*
X743362Y558800D01*
X743013Y561452D01*
Y571563D01*
X732902D01*
X730250Y571912D01*
X727598Y571563D01*
X717487D01*
Y561452D01*
X717138Y558800D01*
X717487Y556148D01*
Y546037D01*
X723533D01*
X723781Y544791D01*
X723694Y544756D01*
X720978Y542672D01*
X718895Y539956D01*
X717585Y536794D01*
X717138Y533400D01*
X717585Y530006D01*
X718895Y526844D01*
X720978Y524128D01*
X723694Y522044D01*
X725281Y521387D01*
Y520013D01*
X723694Y519356D01*
X720978Y517272D01*
X718895Y514556D01*
X717585Y511394D01*
X717138Y508000D01*
X717585Y504606D01*
X718895Y501444D01*
X720978Y498728D01*
X723694Y496645D01*
X725281Y495987D01*
Y494613D01*
X723694Y493955D01*
X720978Y491872D01*
X718895Y489156D01*
X717585Y485994D01*
X717138Y482600D01*
X717585Y479206D01*
X718895Y476044D01*
X720978Y473328D01*
X723694Y471245D01*
X725281Y470587D01*
Y469213D01*
X723694Y468555D01*
X720978Y466472D01*
X718895Y463756D01*
X717585Y460594D01*
X717138Y457200D01*
X717585Y453806D01*
X718895Y450644D01*
X720978Y447928D01*
X723694Y445844D01*
X725281Y445187D01*
Y443813D01*
X723694Y443156D01*
X720978Y441072D01*
X718895Y438356D01*
X717585Y435194D01*
X717138Y431800D01*
X717585Y428406D01*
X718895Y425244D01*
X720978Y422528D01*
X723694Y420444D01*
X725281Y419787D01*
Y418413D01*
X723694Y417756D01*
X720978Y415672D01*
X718895Y412956D01*
X717585Y409794D01*
X717138Y406400D01*
X717585Y403006D01*
X718895Y399844D01*
X720978Y397128D01*
X723694Y395045D01*
X725281Y394387D01*
Y393013D01*
X723694Y392355D01*
X720978Y390272D01*
X718895Y387556D01*
X717585Y384394D01*
X717138Y381000D01*
X717585Y377606D01*
X718895Y374444D01*
X720978Y371728D01*
X723694Y369645D01*
X725281Y368987D01*
Y367613D01*
X723694Y366955D01*
X720978Y364872D01*
X718895Y362156D01*
X717585Y358994D01*
X717138Y355600D01*
X717585Y352206D01*
X718895Y349044D01*
X720978Y346328D01*
X723694Y344244D01*
X725281Y343587D01*
Y342213D01*
X723694Y341555D01*
X720978Y339472D01*
X718895Y336756D01*
X717585Y333594D01*
X717138Y330200D01*
X717585Y326806D01*
X718895Y323644D01*
X720978Y320928D01*
X723694Y318845D01*
X725281Y318187D01*
Y316813D01*
X723694Y316155D01*
X720978Y314072D01*
X718895Y311356D01*
X717585Y308194D01*
X717138Y304800D01*
X717585Y301406D01*
X718895Y298244D01*
X720978Y295528D01*
X723694Y293444D01*
X725281Y292787D01*
Y291413D01*
X723694Y290756D01*
X720978Y288672D01*
X718895Y285956D01*
X717585Y282794D01*
X717138Y279400D01*
X717585Y276006D01*
X718895Y272844D01*
X720978Y270128D01*
X723694Y268044D01*
X725281Y267387D01*
Y266013D01*
X723694Y265355D01*
X720978Y263272D01*
X718895Y260556D01*
X717585Y257394D01*
X717138Y254000D01*
X717585Y250606D01*
X718895Y247444D01*
X720978Y244728D01*
X723694Y242645D01*
X725281Y241987D01*
Y240613D01*
X723694Y239956D01*
X720978Y237872D01*
X718895Y235156D01*
X717585Y231994D01*
X717138Y228600D01*
X717585Y225206D01*
X718895Y222044D01*
X720978Y219328D01*
X723694Y217244D01*
X725281Y216587D01*
Y215213D01*
X723694Y214555D01*
X720978Y212472D01*
X718895Y209756D01*
X718713Y209317D01*
X425000D01*
Y215450D01*
X417146D01*
X416144Y215865D01*
X412750Y216312D01*
X409356Y215865D01*
X408918Y215684D01*
X352984Y271618D01*
X352984Y271618D01*
X353339Y274320D01*
X352984Y277022D01*
X351941Y279540D01*
X350282Y281702D01*
X348120Y283361D01*
X345602Y284404D01*
X342900Y284759D01*
X340198Y284404D01*
X337680Y283361D01*
X335518Y281702D01*
X333859Y279540D01*
X332816Y277022D01*
X332461Y274320D01*
X332816Y271618D01*
X333859Y269100D01*
X335518Y266938D01*
X337680Y265279D01*
X340198Y264236D01*
X342900Y263881D01*
X343358Y263941D01*
X400266Y207032D01*
X400085Y206594D01*
X399638Y203200D01*
X400085Y199806D01*
X400500Y198804D01*
Y190950D01*
X408354D01*
X409356Y190535D01*
X412750Y190088D01*
X416144Y190535D01*
X417146Y190950D01*
X425000D01*
Y197083D01*
X718713D01*
X718895Y196644D01*
X720978Y193928D01*
X723694Y191845D01*
X726856Y190535D01*
X730250Y190088D01*
X733644Y190535D01*
X734082Y190716D01*
X738785Y186014D01*
X738387Y184616D01*
X735259Y183667D01*
X731785Y181810D01*
X728739Y179311D01*
X726240Y176265D01*
X724383Y172791D01*
X723239Y169021D01*
X722853Y165100D01*
X723239Y161179D01*
X724383Y157409D01*
X726240Y153935D01*
X728739Y150889D01*
X731785Y148390D01*
X735259Y146533D01*
X739029Y145389D01*
X742950Y145003D01*
X746871Y145389D01*
X750641Y146533D01*
X754115Y148390D01*
X757161Y150889D01*
X759660Y153935D01*
X761517Y157409D01*
X762661Y161179D01*
X763047Y165100D01*
X762661Y169021D01*
X761517Y172791D01*
X759660Y176265D01*
X757161Y179311D01*
X756152Y180139D01*
X756579Y181334D01*
X932521D01*
X932949Y180139D01*
X931939Y179311D01*
X929440Y176265D01*
X927583Y172791D01*
X926439Y169021D01*
X926053Y165100D01*
X926439Y161179D01*
X927583Y157409D01*
X929440Y153935D01*
X931939Y150889D01*
X934985Y148390D01*
X938459Y146533D01*
X942229Y145389D01*
X946150Y145003D01*
X950071Y145389D01*
X953841Y146533D01*
X957315Y148390D01*
X960361Y150889D01*
X962860Y153935D01*
X964717Y157409D01*
X965861Y161179D01*
X966247Y165100D01*
X965861Y169021D01*
X964717Y172791D01*
X962860Y176265D01*
X960361Y179311D01*
X959352Y180139D01*
X959779Y181334D01*
X996442D01*
X998783Y181800D01*
X1000768Y183126D01*
X1140152Y322510D01*
X1154500D01*
Y345510D01*
X1131500D01*
Y331161D01*
X993908Y193570D01*
X969447D01*
X968821Y194839D01*
X970206Y196644D01*
X971515Y199806D01*
X971962Y203200D01*
X971515Y206594D01*
X970206Y209756D01*
X968122Y212472D01*
X965406Y214555D01*
X963819Y215213D01*
Y216587D01*
X965406Y217244D01*
X968122Y219328D01*
X970206Y222044D01*
X971515Y225206D01*
X971962Y228600D01*
X971515Y231994D01*
X971334Y232432D01*
X1010166Y271264D01*
X1011492Y273249D01*
X1011957Y275590D01*
Y359410D01*
X1011492Y361751D01*
X1010166Y363736D01*
X974180Y399722D01*
X974643Y400904D01*
X1054984Y404092D01*
X1133199D01*
X1134798Y402008D01*
X1137200Y400165D01*
X1139998Y399006D01*
X1143000Y398611D01*
X1146002Y399006D01*
X1147276Y399534D01*
X1147996Y398457D01*
X1145605Y396066D01*
X1143000Y396409D01*
X1139998Y396014D01*
X1137200Y394855D01*
X1134798Y393012D01*
X1132955Y390610D01*
X1131796Y387812D01*
X1131401Y384810D01*
X1131796Y381808D01*
X1132955Y379010D01*
X1134798Y376608D01*
X1137200Y374765D01*
X1139998Y373606D01*
X1143000Y373211D01*
X1146002Y373606D01*
X1148800Y374765D01*
X1151202Y376608D01*
X1153045Y379010D01*
X1154204Y381808D01*
X1154599Y384810D01*
X1154256Y387415D01*
X1168916Y402074D01*
X1170242Y404059D01*
X1170707Y406400D01*
Y486410D01*
X1170242Y488751D01*
X1168916Y490736D01*
X1147326Y512326D01*
X1145341Y513652D01*
X1143000Y514118D01*
X970387D01*
X970206Y514556D01*
X968122Y517272D01*
X965406Y519356D01*
X963819Y520013D01*
Y521387D01*
X965406Y522044D01*
X968122Y524128D01*
X970206Y526844D01*
X971515Y530006D01*
X971962Y533400D01*
X971515Y536794D01*
X970206Y539956D01*
X968122Y542672D01*
X965406Y544756D01*
X963819Y545413D01*
Y546787D01*
X965406Y547444D01*
X968122Y549528D01*
X970206Y552244D01*
X971515Y555406D01*
X971962Y558800D01*
X971515Y562194D01*
X970206Y565356D01*
X968122Y568072D01*
X965406Y570155D01*
X962244Y571465D01*
X958850Y571912D01*
D02*
G37*
G36*
X215900Y228320D02*
X197130D01*
Y209550D01*
X215900D01*
Y228320D01*
D02*
G37*
G36*
X237210Y207010D02*
X218440D01*
Y188240D01*
X237210D01*
Y207010D01*
D02*
G37*
G36*
X215900D02*
X197130D01*
Y196891D01*
X107556Y107318D01*
X76540D01*
Y114240D01*
X64770D01*
Y101200D01*
Y88160D01*
X76540D01*
Y95083D01*
X110090D01*
X112431Y95548D01*
X114416Y96875D01*
X205781Y188240D01*
X215900D01*
Y207010D01*
D02*
G37*
G36*
X62230Y114240D02*
X50460D01*
Y102470D01*
X62230D01*
Y114240D01*
D02*
G37*
G36*
Y99930D02*
X50460D01*
Y88160D01*
X62230D01*
Y99930D01*
D02*
G37*
G36*
X59600Y231050D02*
X16600D01*
Y196702D01*
X15994Y196096D01*
X14668Y194111D01*
X14203Y191770D01*
Y94380D01*
X14668Y92039D01*
X15994Y90054D01*
X49868Y56180D01*
X49373Y54985D01*
X48875Y51200D01*
X49373Y47414D01*
X50834Y43887D01*
X53158Y40858D01*
X56187Y38534D01*
X59715Y37073D01*
X63500Y36575D01*
X67285Y37073D01*
X70813Y38534D01*
X73842Y40858D01*
X76166Y43887D01*
X77627Y47414D01*
X78125Y51200D01*
X77627Y54985D01*
X76166Y58512D01*
X73842Y61541D01*
X70813Y63865D01*
X67285Y65327D01*
X63500Y65825D01*
X59715Y65327D01*
X58520Y64832D01*
X26437Y96914D01*
Y188050D01*
X59600D01*
Y231050D01*
D02*
G37*
%LPD*%
G36*
X414020Y546120D02*
Y537210D01*
X411480D01*
Y546120D01*
X412750Y546287D01*
X414020Y546120D01*
D02*
G37*
G36*
Y342110D02*
Y333200D01*
Y324290D01*
X412750Y324123D01*
X411480Y324290D01*
Y333200D01*
Y342110D01*
X412750Y342278D01*
X414020Y342110D01*
D02*
G37*
D26*
X754380Y252730D02*
Y306070D01*
X730250Y228600D02*
X754380Y252730D01*
X730250Y330200D02*
X754380Y306070D01*
X958850Y457200D02*
X1000760D01*
X1142365Y360045D02*
X1143000Y359410D01*
X1097915Y360045D02*
X1142365D01*
X1097280Y360680D02*
X1097915Y360045D01*
X1054862Y410210D02*
X1143000D01*
X958850Y406400D02*
X1054862Y410210D01*
X958850Y406400D02*
X1005840Y359410D01*
X412750Y333200D02*
X430990D01*
X469900Y372110D01*
X412750Y537210D02*
X482600Y467360D01*
X537030Y391160D02*
X601980Y326210D01*
X38100Y619760D02*
X266700Y391160D01*
X537030D01*
X342900Y543560D02*
X412750Y613410D01*
X217170Y619760D02*
X313690Y523240D01*
X398780D02*
X412750Y537210D01*
X313690Y523240D02*
X398780D01*
X342900Y273050D02*
Y274320D01*
Y273050D02*
X412750Y203200D01*
X20320Y191770D02*
X38100Y209550D01*
X20320Y94380D02*
X63500Y51200D01*
X20320Y94380D02*
Y191770D01*
X958850Y228600D02*
X1005840Y275590D01*
Y359410D01*
X1143000Y508000D02*
X1164590Y486410D01*
Y406400D02*
Y486410D01*
X1143000Y384810D02*
X1164590Y406400D01*
X958850Y508000D02*
X1143000D01*
X996442Y187452D02*
X1143000Y334010D01*
X745998Y187452D02*
X996442D01*
X730250Y203200D02*
X745998Y187452D01*
X482780Y613410D02*
X601980Y494210D01*
X412750Y613410D02*
X482780D01*
X342090Y333200D02*
X412750D01*
X217170Y208280D02*
X342090Y333200D01*
X110090Y101200D02*
X217170Y208280D01*
X63500Y101200D02*
X110090D01*
X412750Y203200D02*
X730250D01*
Y228600D02*
X958850D01*
D27*
X601980Y326210D02*
D03*
Y494210D02*
D03*
D28*
X1143000Y334010D02*
D03*
D29*
Y359410D02*
D03*
Y384810D02*
D03*
Y410210D02*
D03*
D30*
X412750Y613410D02*
D03*
Y537210D02*
D03*
D31*
Y203200D02*
D03*
D32*
Y333200D02*
D03*
D33*
X63500Y101200D02*
D03*
D34*
Y51200D02*
D03*
D35*
X730250Y558800D02*
D03*
D36*
Y533400D02*
D03*
Y508000D02*
D03*
Y482600D02*
D03*
Y457200D02*
D03*
Y431800D02*
D03*
Y406400D02*
D03*
Y381000D02*
D03*
Y355600D02*
D03*
Y330200D02*
D03*
Y304800D02*
D03*
Y279400D02*
D03*
Y254000D02*
D03*
Y228600D02*
D03*
Y203200D02*
D03*
X958850Y558800D02*
D03*
Y533400D02*
D03*
Y508000D02*
D03*
Y482600D02*
D03*
Y457200D02*
D03*
Y431800D02*
D03*
Y406400D02*
D03*
Y381000D02*
D03*
Y355600D02*
D03*
Y330200D02*
D03*
Y304800D02*
D03*
Y279400D02*
D03*
Y254000D02*
D03*
Y228600D02*
D03*
Y203200D02*
D03*
D37*
X742950Y596900D02*
D03*
X946150D02*
D03*
Y165100D02*
D03*
X742950D02*
D03*
D38*
X38100Y209550D02*
D03*
X217170Y208280D02*
D03*
Y619760D02*
D03*
X38100D02*
D03*
D39*
X1000760Y457200D02*
D03*
X1097280Y360680D02*
D03*
X469900Y372110D02*
D03*
X482600Y467360D02*
D03*
X342900Y543560D02*
D03*
Y274320D02*
D03*
M02*
