G04*
G04 #@! TF.GenerationSoftware,Altium Limited,Altium Designer,24.1.2 (44)*
G04*
G04 Layer_Physical_Order=1*
G04 Layer_Color=255*
%FSLAX44Y44*%
%MOMM*%
G71*
G04*
G04 #@! TF.SameCoordinates,E0F3E5AA-E928-4F3E-A3F1-0B3BCF619B82*
G04*
G04*
G04 #@! TF.FilePolarity,Positive*
G04*
G01*
G75*
%ADD28C,0.4000*%
%ADD29R,1.5000X1.5000*%
%ADD30C,1.5000*%
%ADD31C,3.2000*%
%ADD32C,1.7526*%
%ADD33R,1.7526X1.7526*%
%ADD34C,1.3500*%
%ADD35R,2.3000X2.3000*%
%ADD36C,2.3000*%
%ADD37C,1.2000*%
%ADD38R,3.5000X3.5000*%
%ADD39R,1.5000X1.5000*%
%ADD40C,1.2700*%
D28*
X491720Y137160D02*
X494030Y139470D01*
X1226820Y463550D02*
X1252220Y488950D01*
Y554990D01*
D29*
X795020Y927100D02*
D03*
X575310Y952500D02*
D03*
D30*
X795020Y901700D02*
D03*
Y876300D02*
D03*
Y850900D02*
D03*
Y825500D02*
D03*
Y800100D02*
D03*
X575310Y927100D02*
D03*
Y901700D02*
D03*
Y876300D02*
D03*
Y850900D02*
D03*
Y825500D02*
D03*
X982980Y979170D02*
D03*
X957580D02*
D03*
X932180D02*
D03*
D31*
X622300Y224790D02*
D03*
X825500D02*
D03*
Y656590D02*
D03*
X622300D02*
D03*
D32*
X838200Y262890D02*
D03*
Y288290D02*
D03*
Y313690D02*
D03*
Y339090D02*
D03*
Y364490D02*
D03*
Y389890D02*
D03*
Y415290D02*
D03*
Y440690D02*
D03*
Y466090D02*
D03*
Y491490D02*
D03*
Y516890D02*
D03*
Y542290D02*
D03*
Y567690D02*
D03*
Y593090D02*
D03*
Y618490D02*
D03*
X609600Y262890D02*
D03*
Y288290D02*
D03*
Y313690D02*
D03*
Y339090D02*
D03*
Y364490D02*
D03*
Y389890D02*
D03*
Y415290D02*
D03*
Y440690D02*
D03*
Y466090D02*
D03*
Y491490D02*
D03*
Y516890D02*
D03*
Y542290D02*
D03*
Y567690D02*
D03*
Y593090D02*
D03*
D33*
Y618490D02*
D03*
D34*
X1309190Y591820D02*
D03*
X1477190D02*
D03*
X43000Y568960D02*
D03*
X211000D02*
D03*
D35*
X1001800Y137160D02*
D03*
X361720D02*
D03*
X705250Y55880D02*
D03*
D36*
X1131800Y137160D02*
D03*
X491720D02*
D03*
X755250Y55880D02*
D03*
D37*
X457200Y337820D02*
D03*
X381000D02*
D03*
X1028700Y328930D02*
D03*
X1104900D02*
D03*
D38*
X1303020Y444500D02*
D03*
X1482090D02*
D03*
Y33020D02*
D03*
X1303020Y34290D02*
D03*
X46990Y455930D02*
D03*
X226060D02*
D03*
Y44450D02*
D03*
X46990Y45720D02*
D03*
D39*
X1008380Y979170D02*
D03*
D40*
X1252220Y556260D02*
D03*
X1226820Y463550D02*
D03*
M02*
