M48
;Layer_Color=9474304
;FILE_FORMAT=4:4
METRIC,LZ
;TYPE=PLATED
T01F00S00C0.6000
T02F00S00C0.7000
T03F00S00C0.7112
T04F00S00C0.7500
T05F00S00C0.9000
T06F00S00C1.2500
T07F00S00C1.3500
T08F00S00C1.5000
%
T01
X010287Y0032893
X011049
X004572Y0033782
X00381
X00043Y0056896
X00211
X0130919Y0059182
X0147719
T02
X006096Y0026289
Y0028829
Y0031369
Y0033909
Y0036449
Y0038989
Y0041529
Y0044069
Y0046609
Y0049149
Y0051689
X008382
Y0049149
Y0046609
Y0044069
Y0041529
Y0038989
Y0036449
Y0033909
Y0031369
Y0028829
Y0026289
Y0054229
Y0056769
Y0059309
Y0061849
X006096
Y0059309
Y0056769
Y0054229
T03
X0122682Y0046355
X0125222Y0055626
T04
X0057531Y008255
Y008509
Y008763
Y009017
Y009271
X0079502
Y009017
Y008763
Y008509
Y008255
Y008001
X0057531Y009525
T05
X0095758Y0097917
X0098298
X0100838
X0093218
T06
X0004699Y0004572
X0022606Y0004445
X0130302Y0003429
X0148209Y0003302
Y004445
X0130302
X0022606Y0045593
X0004699
T07
X0036172Y0013716
X0049172
X010018
X011318
T08
X0070525Y0005588
X0075525
M30
